<?xml version="1.0" encoding="UTF-8" standalone="no"?>
<!-- Created with Inkscape (http://www.inkscape.org/) -->

<svg
   width="144.55479mm"
   height="160.40334mm"
   viewBox="0 0 144.55479 160.40334"
   version="1.1"
   id="svg1"
   xml:space="preserve"
   inkscape:export-filename="crosshair_both_enabled.png"
   inkscape:export-xdpi="16.868345"
   inkscape:export-ydpi="16.868345"
   inkscape:version="1.3.2 (091e20e, 2023-11-25)"
   sodipodi:docname="crosshair.svg"
   xmlns:inkscape="http://www.inkscape.org/namespaces/inkscape"
   xmlns:sodipodi="http://sodipodi.sourceforge.net/DTD/sodipodi-0.dtd"
   xmlns="http://www.w3.org/2000/svg"
   xmlns:svg="http://www.w3.org/2000/svg"><sodipodi:namedview
     id="namedview1"
     pagecolor="#ffffff"
     bordercolor="#000000"
     borderopacity="0.25"
     inkscape:showpageshadow="2"
     inkscape:pageopacity="0.0"
     inkscape:pagecheckerboard="0"
     inkscape:deskcolor="#d1d1d1"
     inkscape:document-units="mm"
     inkscape:zoom="0.87180187"
     inkscape:cx="273.57133"
     inkscape:cy="299.95348"
     inkscape:window-width="1472"
     inkscape:window-height="890"
     inkscape:window-x="0"
     inkscape:window-y="38"
     inkscape:window-maximized="1"
     inkscape:current-layer="layer1" /><defs
     id="defs1" /><g
     inkscape:label="Layer 1"
     inkscape:groupmode="layer"
     id="layer1"
     transform="translate(-42.183934,-39.613475)"><g
       id="g1"
       transform="rotate(-90,102.44499,103.16852)"
       style="display:inline"><path
         style="fill:#fbeecf"
         d="m 80.640051,187.12592 c 0.187098,-0.0749 0.410644,-0.0657 0.496769,0.0205 0.08612,0.0861 -0.06696,0.14738 -0.340179,0.13613 -0.301934,-0.0124 -0.363349,-0.0739 -0.15659,-0.15659 z m 9.589796,0 c 0.187098,-0.0749 0.410644,-0.0657 0.496769,0.0205 0.08612,0.0861 -0.06696,0.14738 -0.340179,0.13613 -0.301934,-0.0124 -0.363349,-0.0739 -0.15659,-0.15659 z m -13.477551,-0.25919 c 0.187098,-0.0749 0.410644,-0.0657 0.496769,0.0205 0.08612,0.0861 -0.06696,0.14739 -0.340179,0.13613 -0.301934,-0.0124 -0.363349,-0.0739 -0.15659,-0.15659 z m 17.106122,0 c 0.187099,-0.0749 0.410645,-0.0657 0.496769,0.0205 0.08612,0.0861 -0.06696,0.14739 -0.340178,0.13613 -0.301935,-0.0124 -0.36335,-0.0739 -0.156591,-0.15659 z m -53.3763,-15.04999 c -0.322391,-0.41108 -0.313223,-0.42024 0.09786,-0.0979 0.249465,0.19564 0.453572,0.39975 0.453572,0.45357 0,0.21332 -0.212838,0.076 -0.551428,-0.35572 z M 148.0764,163.36021 c 0,-0.0538 0.20411,-0.25792 0.45357,-0.45357 0.41108,-0.32239 0.42025,-0.31322 0.0979,0.0979 -0.33859,0.43173 -0.55143,0.56903 -0.55143,0.35571 z m -90.260711,-8.11975 c 0.320739,-0.0618 0.845586,-0.0618 1.166326,0 0.32074,0.0618 0.05832,0.11232 -0.583163,0.11232 -0.64148,0 -0.903903,-0.0505 -0.583163,-0.11232 z m 9.205953,0.003 c 0.252177,-0.0657 0.602075,-0.0614 0.777551,0.01 0.175476,0.071 -0.03085,0.12476 -0.458504,0.11948 -0.427653,-0.005 -0.571224,-0.0634 -0.319047,-0.12909 z M 52.38903,154.98714 c 0.187099,-0.0749 0.410645,-0.0657 0.496769,0.0205 0.08613,0.0861 -0.06696,0.14738 -0.340178,0.13613 -0.301935,-0.0124 -0.36335,-0.0738 -0.156591,-0.15659 z M 40.450382,153.9558 c 0.178189,-0.0719 0.469771,-0.0719 0.64796,0 0.178188,0.0719 0.0324,0.13073 -0.32398,0.13073 -0.356378,0 -0.502168,-0.0588 -0.32398,-0.13073 z m 88.446428,-18.84661 c 0,-0.0538 0.20411,-0.25793 0.45357,-0.45357 0.41108,-0.32239 0.42025,-0.31322 0.0979,0.0979 -0.33859,0.43173 -0.55143,0.56903 -0.55143,0.35571 z m 3.88776,-3.91949 c 0.3348,-0.35638 0.66704,-0.64796 0.73831,-0.64796 0.0713,0 -0.14433,0.29158 -0.47913,0.64796 -0.3348,0.35638 -0.66704,0.64796 -0.73832,0.64796 -0.0713,0 0.14434,-0.29158 0.47914,-0.64796 z m 32.6776,-7.01956 c 0.0124,-0.30193 0.0739,-0.36335 0.15659,-0.15659 0.0749,0.1871 0.0657,0.41065 -0.0205,0.49677 -0.0861,0.0861 -0.14738,-0.0669 -0.13613,-0.34018 z"
         id="path7" /><path
         style="fill:#fae4b1"
         d="m 81.417602,187.12592 c 0.187098,-0.0749 0.410644,-0.0657 0.496769,0.0205 0.08612,0.0861 -0.06696,0.14738 -0.340179,0.13613 -0.301934,-0.0124 -0.363349,-0.0739 -0.15659,-0.15659 z m 8.034694,0 c 0.187098,-0.0749 0.410644,-0.0657 0.496769,0.0205 0.08612,0.0861 -0.06696,0.14738 -0.340179,0.13613 -0.301934,-0.0124 -0.363349,-0.0739 -0.15659,-0.15659 z m -11.922449,-0.25919 c 0.187098,-0.0749 0.410644,-0.0657 0.496769,0.0205 0.08612,0.0861 -0.06696,0.14739 -0.340179,0.13613 -0.301934,-0.0124 -0.363349,-0.0739 -0.15659,-0.15659 z m 15.55102,0 c 0.187099,-0.0749 0.410645,-0.0657 0.496769,0.0205 0.08612,0.0861 -0.06696,0.14739 -0.340178,0.13613 -0.301935,-0.0124 -0.36335,-0.0739 -0.156591,-0.15659 z m -55.81768,-18.28978 -1.024539,-1.10153 1.10153,1.02454 c 0.605842,0.56349 1.101531,1.05918 1.101531,1.10153 0,0.19609 -0.22571,-1.3e-4 -1.178522,-1.02454 z m 115.219343,-9.6546 c 0.3348,-0.35637 0.66704,-0.64795 0.73831,-0.64795 0.0713,0 -0.14433,0.29158 -0.47913,0.64795 -0.3348,0.35638 -0.66704,0.64796 -0.73832,0.64796 -0.0713,0 0.14434,-0.29158 0.47914,-0.64796 z M 34.942729,156.46011 c 0.258014,-0.2851 0.527433,-0.51837 0.598708,-0.51837 0.07128,0 -0.08151,0.23327 -0.339524,0.51837 -0.258014,0.2851 -0.527432,0.51837 -0.598708,0.51837 -0.07127,0 0.08151,-0.23327 0.339524,-0.51837 z m 21.852424,-1.21379 c 0.187098,-0.0749 0.410644,-0.0657 0.496769,0.0205 0.08612,0.0861 -0.06696,0.14738 -0.340179,0.13612 -0.301934,-0.0124 -0.363349,-0.0738 -0.15659,-0.15659 z m 11.522407,-0.003 c 0.252178,-0.0657 0.602076,-0.0614 0.777551,0.01 0.175476,0.071 -0.03085,0.12476 -0.458504,0.11948 -0.427653,-0.005 -0.571224,-0.0634 -0.319047,-0.12909 z m 97.14461,-30.29607 c 0.0124,-0.30193 0.0739,-0.36334 0.15659,-0.15659 0.0749,0.1871 0.0657,0.41065 -0.0205,0.49677 -0.0861,0.0861 -0.14738,-0.0669 -0.13613,-0.34018 z"
         id="path6" /><path
         style="fill:#f8d78e"
         d="m 83.734056,187.11052 c 1.033495,-0.0492 2.724669,-0.0492 3.758163,0 1.033495,0.0492 0.187909,0.0894 -1.879081,0.0894 -2.06699,0 -2.912577,-0.0403 -1.879082,-0.0894 z m -5.426658,-0.24379 c 0.187098,-0.0749 0.410644,-0.0657 0.496769,0.0205 0.08612,0.0861 -0.06696,0.14739 -0.340179,0.13613 -0.301934,-0.0124 -0.363349,-0.0739 -0.15659,-0.15659 z m 13.995918,0 c 0.187099,-0.0749 0.410645,-0.0657 0.496769,0.0205 0.08613,0.0861 -0.06696,0.14739 -0.340178,0.13613 -0.301935,-0.0124 -0.36335,-0.0739 -0.156591,-0.15659 z m -53.229953,-16.4755 -0.761246,-0.84234 0.842347,0.76124 c 0.785185,0.70959 0.961481,0.92345 0.761246,0.92345 -0.0446,0 -0.423661,-0.37906 -0.842347,-0.84235 z m 111.465287,-9.525 c 0.70204,-0.71275 1.33475,-1.29592 1.40602,-1.29592 0.0713,0 -0.4448,0.58317 -1.14684,1.29592 -0.70204,0.71276 -1.33475,1.29592 -1.40602,1.29592 -0.0713,0 0.4448,-0.58316 1.14684,-1.29592 z m -94.796431,-5.61451 c 0.178189,-0.0719 0.469771,-0.0719 0.647959,0 0.178189,0.0719 0.0324,0.13073 -0.323979,0.13073 -0.356378,0 -0.502169,-0.0588 -0.32398,-0.13073 z m 13.995919,-0.0113 c 0.32074,-0.0618 0.845586,-0.0618 1.166326,0 0.32074,0.0618 0.05832,0.11232 -0.583163,0.11232 -0.64148,0 -0.903903,-0.0505 -0.583163,-0.11232 z M 51.093112,154.9871 c 0.187098,-0.0749 0.410644,-0.0657 0.496769,0.0205 0.08612,0.0861 -0.06696,0.14738 -0.340179,0.13613 -0.301934,-0.0124 -0.363349,-0.0738 -0.15659,-0.15659 z m 23.326531,0 c 0.187098,-0.0749 0.410644,-0.0657 0.496769,0.0205 0.08612,0.0861 -0.06696,0.14738 -0.340179,0.13613 -0.301934,-0.0124 -0.363349,-0.0738 -0.15659,-0.15659 z m -26.436735,-0.25918 c 0.187098,-0.0749 0.410644,-0.0657 0.496769,0.0205 0.08612,0.0861 -0.06696,0.14738 -0.340179,0.13613 -0.301934,-0.0124 -0.363349,-0.0739 -0.15659,-0.15659 z m 29.546939,0 c 0.187098,-0.0749 0.410644,-0.0657 0.496769,0.0205 0.08612,0.0861 -0.06696,0.14738 -0.340179,0.13613 -0.301934,-0.0124 -0.363349,-0.0739 -0.15659,-0.15659 z m 50.071043,-18.32285 c 0,-0.0538 0.20411,-0.25793 0.45357,-0.45357 0.41108,-0.32239 0.42025,-0.31322 0.0979,0.0979 -0.33859,0.43173 -0.55143,0.56903 -0.55143,0.35571 z m 37.6021,-3.16354 c 0.0124,-0.30193 0.0738,-0.36335 0.15659,-0.15659 0.0749,0.1871 0.0657,0.41065 -0.0205,0.49677 -0.0861,0.0861 -0.14739,-0.0669 -0.13613,-0.34018 z m 0.28925,-2.82942 c 0.005,-0.42765 0.0634,-0.57122 0.12908,-0.31905 0.0657,0.25218 0.0614,0.60208 -0.01,0.77755 -0.071,0.17548 -0.12476,-0.0309 -0.11948,-0.4585 z m -0.0301,-4.6869 c 0.0124,-0.30194 0.0739,-0.36335 0.15659,-0.15659 0.0749,0.18709 0.0657,0.41064 -0.0205,0.49676 -0.0861,0.0861 -0.14738,-0.067 -0.13613,-0.34017 z"
         id="path5" /><path
         style="fill:#9cdfcc"
         d="m 159.1727,106.00143 c 0.1871,-0.0749 0.41065,-0.0657 0.49677,0.0205 0.0861,0.0861 -0.0669,0.14738 -0.34018,0.13613 -0.30193,-0.0124 -0.36334,-0.0739 -0.15659,-0.15659 z m -1.81428,-0.25919 c 0.1871,-0.0749 0.41064,-0.0657 0.49677,0.0205 0.0861,0.0861 -0.067,0.14739 -0.34018,0.13613 -0.30194,-0.0124 -0.36335,-0.0739 -0.15659,-0.15659 z m -9.75946,-4.74744 c 0,-0.35637 0.0588,-0.50216 0.13073,-0.32398 0.0719,0.17819 0.0719,0.46977 0,0.64796 -0.0719,0.17819 -0.13073,0.0324 -0.13073,-0.32398 z m 0.25918,-2.073466 c 0,-0.356377 0.0588,-0.502168 0.13073,-0.323979 0.0719,0.178188 0.0719,0.46977 0,0.647959 -0.0719,0.178188 -0.13073,0.0324 -0.13073,-0.32398 z m 0.31293,-4.276531 c 6.7e-4,-1.42551 0.0442,-1.975605 0.0967,-1.222434 0.0525,0.753172 0.052,1.919498 -0.001,2.591837 -0.0532,0.672339 -0.0962,0.05611 -0.0955,-1.369403 z m 8.99722,2.051871 c 0.0124,-0.301934 0.0739,-0.363349 0.15659,-0.15659 0.0749,0.187098 0.0657,0.410644 -0.0205,0.496769 -0.0861,0.08612 -0.14738,-0.06696 -0.13613,-0.340179 z m -0.25918,-1.555102 c 0.0124,-0.301934 0.0738,-0.363349 0.15659,-0.15659 0.0749,0.187098 0.0657,0.410644 -0.0205,0.496769 -0.0861,0.08612 -0.14738,-0.06696 -0.13613,-0.340179 z m -0.22912,-2.051871 c 0.005,-0.427653 0.0634,-0.571224 0.12909,-0.319046 0.0657,0.252177 0.0614,0.602075 -0.01,0.777551 -0.071,0.175475 -0.12476,-0.03085 -0.11948,-0.458505 z m -8.81224,-3.110204 c 0.005,-0.427653 0.0634,-0.571224 0.12908,-0.319047 0.0657,0.252178 0.0614,0.602076 -0.01,0.777552 -0.071,0.175475 -0.12476,-0.03085 -0.11948,-0.458505 z m -0.28925,-1.835884 c 0.0124,-0.301934 0.0739,-0.363349 0.15659,-0.15659 0.0749,0.187098 0.0657,0.410644 -0.0205,0.496769 -0.0861,0.08612 -0.14739,-0.06696 -0.13613,-0.340179 z m -0.27965,-2.943717 c 0,-0.134139 0.1153,-0.315145 0.25622,-0.402237 0.14692,-0.0908 0.19037,0.01323 0.10186,0.243887 -0.1723,0.449014 -0.35808,0.531168 -0.35808,0.15835 z m 1.22681,-1.343377 c 0.17581,-0.17713 0.38495,-0.256765 0.46474,-0.176966 0.0798,0.0798 -0.064,0.224725 -0.31966,0.322056 -0.36938,0.140655 -0.39915,0.110884 -0.14508,-0.14509 z m 4.1559,0.103507 c 0.46584,-0.05768 1.16564,-0.05649 1.5551,0.0026 0.38946,0.05914 0.008,0.106335 -0.84699,0.104881 -0.85531,-0.0015 -1.17396,-0.04984 -0.70811,-0.107526 z m -2.59648,-0.242997 c 0.17819,-0.0719 0.46977,-0.0719 0.64796,0 0.17818,0.0719 0.0324,0.130728 -0.32398,0.130728 -0.35638,0 -0.50217,-0.05883 -0.32398,-0.130728 z"
         id="path4" /><path
         style="fill:#0065c5;fill-opacity:1"
         d="M 69.049029,172.00867 C 56.139565,170.92885 45.156028,167.1312 35.528717,160.41876 l -2.005849,-1.39854 0.506603,-0.99302 c 0.686283,-1.34523 2.383581,-2.74423 4.132489,-3.40623 1.627379,-0.61599 2.310116,-0.60318 9.869545,0.18527 6.286313,0.65566 23.487037,0.66662 29.935714,0.0191 23.562481,-2.36604 41.418921,-9.70926 53.441391,-21.97706 1.45277,-1.48241 3.24917,-3.45341 3.99202,-4.37999 4.60462,-5.74355 8.82107,-14.09953 10.85513,-21.51224 0.33249,-1.21169 0.68685,-2.29751 0.78747,-2.41295 0.10063,-0.11544 2.00198,0.0565 4.22524,0.38201 l 4.04228,0.5919 0.20579,1.43228 c 0.11318,0.78775 0.1972,3.76492 0.18672,6.61594 -0.0161,4.38324 -0.10739,5.56388 -0.59104,7.64592 -2.19886,9.46559 -6.36307,16.70795 -14.02088,24.38497 -12.41317,12.4443 -30.3737,21.67256 -48.869018,25.10927 -6.744186,1.25317 -16.926303,1.82583 -23.173293,1.3033 z m 78.249821,-8.13009 c 0,-0.0538 0.20411,-0.25793 0.45357,-0.45357 0.41108,-0.32239 0.42025,-0.31322 0.0979,0.0979 -0.33859,0.43173 -0.55143,0.56903 -0.55143,0.35571 z M 33.039776,161.3846 c 0,-0.35638 0.05883,-0.50217 0.130728,-0.32398 0.0719,0.17819 0.0719,0.46977 0,0.64796 -0.0719,0.17819 -0.130728,0.0324 -0.130728,-0.32398 z M 165.46217,129.35382 c 0.0124,-0.30194 0.0739,-0.36335 0.15659,-0.15659 0.0749,0.1871 0.0657,0.41064 -0.0205,0.49677 -0.0861,0.0861 -0.14738,-0.067 -0.13613,-0.34018 z m 0.0449,-2.31106 c 0.003,-0.5702 0.056,-0.77295 0.11795,-0.45055 0.062,0.32241 0.0596,0.78894 -0.005,1.03674 -0.0649,0.2478 -0.1156,-0.016 -0.11272,-0.58619 z"
         id="path3" /><path
         style="fill:#004dbc;fill-opacity:1"
         d="m 78.355995,186.87939 c -15.774203,-1.45491 -29.273249,-7.15772 -39.03637,-16.49133 -2.814978,-2.69113 -5.119118,-5.43524 -5.66915,-6.75165 -0.38881,-0.93056 -0.532243,-3.4002 -0.241483,-4.1579 0.117952,-0.30738 0.72712,-0.005 2.786225,1.38112 5.215663,3.51208 9.524571,5.66341 15.11609,7.54708 21.615526,7.28185 48.168858,4.07334 70.672283,-8.53953 7.49914,-4.20317 13.63999,-8.78961 19.10775,-14.27108 7.6652,-7.68443 11.88315,-15.02701 14.00798,-24.38497 0.68773,-3.02885 0.9631,-9.95832 0.52507,-13.21312 -0.16022,-1.19055 -0.24817,-2.20778 -0.19545,-2.26051 0.0527,-0.0527 1.17877,0.0483 2.5023,0.22453 l 2.40644,0.32039 0.72554,1.60014 c 1.80672,3.98464 3.45597,9.74798 4.12283,14.4073 0.60482,4.22589 0.31859,10.68333 -0.66393,14.97831 -3.3416,14.60751 -15.58399,28.24129 -34.53692,38.46216 -10.31303,5.56157 -20.77609,8.9617 -32.876823,10.68383 -2.719266,0.38699 -16.022332,0.71703 -18.752382,0.46523 z"
         id="path2" /><path
         style="fill:#000000;fill-opacity:1"
         d="m 154.03763,105.24877 c -7.8539,-1.1828 -7.01902,-0.8503 -6.61179,-2.63328 1.00265,-4.389926 1.10033,-10.373137 0.24227,-14.839054 -0.62963,-3.277038 0.25115,-4.317353 3.28411,-3.878935 0.91294,0.131967 2.2593,0.242286 2.9919,0.245152 0.91907,0.0036 1.52169,0.158748 1.94388,0.500479 0.59193,0.479128 0.61723,0.654373 0.7764,5.378061 0.21331,6.330187 1.18423,11.112697 2.97589,14.658357 0.6666,1.3192 0.72223,1.51276 0.42336,1.47319 -0.10691,-0.0142 -2.81862,-0.42094 -6.02602,-0.90397 z"
         id="path1" /></g><g
       id="g2"
       transform="rotate(90,97.815315,131.83134)"
       style="display:inline"><path
         style="fill:#fbeecf"
         d="m 80.640051,187.12592 c 0.187098,-0.0749 0.410644,-0.0657 0.496769,0.0205 0.08612,0.0861 -0.06696,0.14738 -0.340179,0.13613 -0.301934,-0.0124 -0.363349,-0.0739 -0.15659,-0.15659 z m 9.589796,0 c 0.187098,-0.0749 0.410644,-0.0657 0.496769,0.0205 0.08612,0.0861 -0.06696,0.14738 -0.340179,0.13613 -0.301934,-0.0124 -0.363349,-0.0739 -0.15659,-0.15659 z m -13.477551,-0.25919 c 0.187098,-0.0749 0.410644,-0.0657 0.496769,0.0205 0.08612,0.0861 -0.06696,0.14739 -0.340179,0.13613 -0.301934,-0.0124 -0.363349,-0.0739 -0.15659,-0.15659 z m 17.106122,0 c 0.187099,-0.0749 0.410645,-0.0657 0.496769,0.0205 0.08612,0.0861 -0.06696,0.14739 -0.340178,0.13613 -0.301935,-0.0124 -0.36335,-0.0739 -0.156591,-0.15659 z m -53.3763,-15.04999 c -0.322391,-0.41108 -0.313223,-0.42024 0.09786,-0.0979 0.249465,0.19564 0.453572,0.39975 0.453572,0.45357 0,0.21332 -0.212838,0.076 -0.551428,-0.35572 z M 148.0764,163.36021 c 0,-0.0538 0.20411,-0.25792 0.45357,-0.45357 0.41108,-0.32239 0.42025,-0.31322 0.0979,0.0979 -0.33859,0.43173 -0.55143,0.56903 -0.55143,0.35571 z m -90.260711,-8.11975 c 0.320739,-0.0618 0.845586,-0.0618 1.166326,0 0.32074,0.0618 0.05832,0.11232 -0.583163,0.11232 -0.64148,0 -0.903903,-0.0505 -0.583163,-0.11232 z m 9.205953,0.003 c 0.252177,-0.0657 0.602075,-0.0614 0.777551,0.01 0.175476,0.071 -0.03085,0.12476 -0.458504,0.11948 -0.427653,-0.005 -0.571224,-0.0634 -0.319047,-0.12909 z M 52.38903,154.98714 c 0.187099,-0.0749 0.410645,-0.0657 0.496769,0.0205 0.08613,0.0861 -0.06696,0.14738 -0.340178,0.13613 -0.301935,-0.0124 -0.36335,-0.0738 -0.156591,-0.15659 z M 40.450382,153.9558 c 0.178189,-0.0719 0.469771,-0.0719 0.64796,0 0.178188,0.0719 0.0324,0.13073 -0.32398,0.13073 -0.356378,0 -0.502168,-0.0588 -0.32398,-0.13073 z m 88.446428,-18.84661 c 0,-0.0538 0.20411,-0.25793 0.45357,-0.45357 0.41108,-0.32239 0.42025,-0.31322 0.0979,0.0979 -0.33859,0.43173 -0.55143,0.56903 -0.55143,0.35571 z m 3.88776,-3.91949 c 0.3348,-0.35638 0.66704,-0.64796 0.73831,-0.64796 0.0713,0 -0.14433,0.29158 -0.47913,0.64796 -0.3348,0.35638 -0.66704,0.64796 -0.73832,0.64796 -0.0713,0 0.14434,-0.29158 0.47914,-0.64796 z m 32.6776,-7.01956 c 0.0124,-0.30193 0.0739,-0.36335 0.15659,-0.15659 0.0749,0.1871 0.0657,0.41065 -0.0205,0.49677 -0.0861,0.0861 -0.14738,-0.0669 -0.13613,-0.34018 z"
         id="path7-9" /><path
         style="fill:#fae4b1"
         d="m 81.417602,187.12592 c 0.187098,-0.0749 0.410644,-0.0657 0.496769,0.0205 0.08612,0.0861 -0.06696,0.14738 -0.340179,0.13613 -0.301934,-0.0124 -0.363349,-0.0739 -0.15659,-0.15659 z m 8.034694,0 c 0.187098,-0.0749 0.410644,-0.0657 0.496769,0.0205 0.08612,0.0861 -0.06696,0.14738 -0.340179,0.13613 -0.301934,-0.0124 -0.363349,-0.0739 -0.15659,-0.15659 z m -11.922449,-0.25919 c 0.187098,-0.0749 0.410644,-0.0657 0.496769,0.0205 0.08612,0.0861 -0.06696,0.14739 -0.340179,0.13613 -0.301934,-0.0124 -0.363349,-0.0739 -0.15659,-0.15659 z m 15.55102,0 c 0.187099,-0.0749 0.410645,-0.0657 0.496769,0.0205 0.08612,0.0861 -0.06696,0.14739 -0.340178,0.13613 -0.301935,-0.0124 -0.36335,-0.0739 -0.156591,-0.15659 z m -55.81768,-18.28978 -1.024539,-1.10153 1.10153,1.02454 c 0.605842,0.56349 1.101531,1.05918 1.101531,1.10153 0,0.19609 -0.22571,-1.3e-4 -1.178522,-1.02454 z m 115.219343,-9.6546 c 0.3348,-0.35637 0.66704,-0.64795 0.73831,-0.64795 0.0713,0 -0.14433,0.29158 -0.47913,0.64795 -0.3348,0.35638 -0.66704,0.64796 -0.73832,0.64796 -0.0713,0 0.14434,-0.29158 0.47914,-0.64796 z M 34.942729,156.46011 c 0.258014,-0.2851 0.527433,-0.51837 0.598708,-0.51837 0.07128,0 -0.08151,0.23327 -0.339524,0.51837 -0.258014,0.2851 -0.527432,0.51837 -0.598708,0.51837 -0.07127,0 0.08151,-0.23327 0.339524,-0.51837 z m 21.852424,-1.21379 c 0.187098,-0.0749 0.410644,-0.0657 0.496769,0.0205 0.08612,0.0861 -0.06696,0.14738 -0.340179,0.13612 -0.301934,-0.0124 -0.363349,-0.0738 -0.15659,-0.15659 z m 11.522407,-0.003 c 0.252178,-0.0657 0.602076,-0.0614 0.777551,0.01 0.175476,0.071 -0.03085,0.12476 -0.458504,0.11948 -0.427653,-0.005 -0.571224,-0.0634 -0.319047,-0.12909 z m 97.14461,-30.29607 c 0.0124,-0.30193 0.0739,-0.36334 0.15659,-0.15659 0.0749,0.1871 0.0657,0.41065 -0.0205,0.49677 -0.0861,0.0861 -0.14738,-0.0669 -0.13613,-0.34018 z"
         id="path6-8" /><path
         style="fill:#f8d78e"
         d="m 83.734056,187.11052 c 1.033495,-0.0492 2.724669,-0.0492 3.758163,0 1.033495,0.0492 0.187909,0.0894 -1.879081,0.0894 -2.06699,0 -2.912577,-0.0403 -1.879082,-0.0894 z m -5.426658,-0.24379 c 0.187098,-0.0749 0.410644,-0.0657 0.496769,0.0205 0.08612,0.0861 -0.06696,0.14739 -0.340179,0.13613 -0.301934,-0.0124 -0.363349,-0.0739 -0.15659,-0.15659 z m 13.995918,0 c 0.187099,-0.0749 0.410645,-0.0657 0.496769,0.0205 0.08613,0.0861 -0.06696,0.14739 -0.340178,0.13613 -0.301935,-0.0124 -0.36335,-0.0739 -0.156591,-0.15659 z m -53.229953,-16.4755 -0.761246,-0.84234 0.842347,0.76124 c 0.785185,0.70959 0.961481,0.92345 0.761246,0.92345 -0.0446,0 -0.423661,-0.37906 -0.842347,-0.84235 z m 111.465287,-9.525 c 0.70204,-0.71275 1.33475,-1.29592 1.40602,-1.29592 0.0713,0 -0.4448,0.58317 -1.14684,1.29592 -0.70204,0.71276 -1.33475,1.29592 -1.40602,1.29592 -0.0713,0 0.4448,-0.58316 1.14684,-1.29592 z m -94.796431,-5.61451 c 0.178189,-0.0719 0.469771,-0.0719 0.647959,0 0.178189,0.0719 0.0324,0.13073 -0.323979,0.13073 -0.356378,0 -0.502169,-0.0588 -0.32398,-0.13073 z m 13.995919,-0.0113 c 0.32074,-0.0618 0.845586,-0.0618 1.166326,0 0.32074,0.0618 0.05832,0.11232 -0.583163,0.11232 -0.64148,0 -0.903903,-0.0505 -0.583163,-0.11232 z M 51.093112,154.9871 c 0.187098,-0.0749 0.410644,-0.0657 0.496769,0.0205 0.08612,0.0861 -0.06696,0.14738 -0.340179,0.13613 -0.301934,-0.0124 -0.363349,-0.0738 -0.15659,-0.15659 z m 23.326531,0 c 0.187098,-0.0749 0.410644,-0.0657 0.496769,0.0205 0.08612,0.0861 -0.06696,0.14738 -0.340179,0.13613 -0.301934,-0.0124 -0.363349,-0.0738 -0.15659,-0.15659 z m -26.436735,-0.25918 c 0.187098,-0.0749 0.410644,-0.0657 0.496769,0.0205 0.08612,0.0861 -0.06696,0.14738 -0.340179,0.13613 -0.301934,-0.0124 -0.363349,-0.0739 -0.15659,-0.15659 z m 29.546939,0 c 0.187098,-0.0749 0.410644,-0.0657 0.496769,0.0205 0.08612,0.0861 -0.06696,0.14738 -0.340179,0.13613 -0.301934,-0.0124 -0.363349,-0.0739 -0.15659,-0.15659 z m 50.071043,-18.32285 c 0,-0.0538 0.20411,-0.25793 0.45357,-0.45357 0.41108,-0.32239 0.42025,-0.31322 0.0979,0.0979 -0.33859,0.43173 -0.55143,0.56903 -0.55143,0.35571 z m 37.6021,-3.16354 c 0.0124,-0.30193 0.0738,-0.36335 0.15659,-0.15659 0.0749,0.1871 0.0657,0.41065 -0.0205,0.49677 -0.0861,0.0861 -0.14739,-0.0669 -0.13613,-0.34018 z m 0.28925,-2.82942 c 0.005,-0.42765 0.0634,-0.57122 0.12908,-0.31905 0.0657,0.25218 0.0614,0.60208 -0.01,0.77755 -0.071,0.17548 -0.12476,-0.0309 -0.11948,-0.4585 z m -0.0301,-4.6869 c 0.0124,-0.30194 0.0739,-0.36335 0.15659,-0.15659 0.0749,0.18709 0.0657,0.41064 -0.0205,0.49676 -0.0861,0.0861 -0.14738,-0.067 -0.13613,-0.34017 z"
         id="path5-6" /><path
         style="fill:#9cdfcc"
         d="m 159.1727,106.00143 c 0.1871,-0.0749 0.41065,-0.0657 0.49677,0.0205 0.0861,0.0861 -0.0669,0.14738 -0.34018,0.13613 -0.30193,-0.0124 -0.36334,-0.0739 -0.15659,-0.15659 z m -1.81428,-0.25919 c 0.1871,-0.0749 0.41064,-0.0657 0.49677,0.0205 0.0861,0.0861 -0.067,0.14739 -0.34018,0.13613 -0.30194,-0.0124 -0.36335,-0.0739 -0.15659,-0.15659 z m -9.75946,-4.74744 c 0,-0.35637 0.0588,-0.50216 0.13073,-0.32398 0.0719,0.17819 0.0719,0.46977 0,0.64796 -0.0719,0.17819 -0.13073,0.0324 -0.13073,-0.32398 z m 0.25918,-2.073466 c 0,-0.356377 0.0588,-0.502168 0.13073,-0.323979 0.0719,0.178188 0.0719,0.46977 0,0.647959 -0.0719,0.178188 -0.13073,0.0324 -0.13073,-0.32398 z m 0.31293,-4.276531 c 6.7e-4,-1.42551 0.0442,-1.975605 0.0967,-1.222434 0.0525,0.753172 0.052,1.919498 -0.001,2.591837 -0.0532,0.672339 -0.0962,0.05611 -0.0955,-1.369403 z m 8.99722,2.051871 c 0.0124,-0.301934 0.0739,-0.363349 0.15659,-0.15659 0.0749,0.187098 0.0657,0.410644 -0.0205,0.496769 -0.0861,0.08612 -0.14738,-0.06696 -0.13613,-0.340179 z m -0.25918,-1.555102 c 0.0124,-0.301934 0.0738,-0.363349 0.15659,-0.15659 0.0749,0.187098 0.0657,0.410644 -0.0205,0.496769 -0.0861,0.08612 -0.14738,-0.06696 -0.13613,-0.340179 z m -0.22912,-2.051871 c 0.005,-0.427653 0.0634,-0.571224 0.12909,-0.319046 0.0657,0.252177 0.0614,0.602075 -0.01,0.777551 -0.071,0.175475 -0.12476,-0.03085 -0.11948,-0.458505 z m -8.81224,-3.110204 c 0.005,-0.427653 0.0634,-0.571224 0.12908,-0.319047 0.0657,0.252178 0.0614,0.602076 -0.01,0.777552 -0.071,0.175475 -0.12476,-0.03085 -0.11948,-0.458505 z m -0.28925,-1.835884 c 0.0124,-0.301934 0.0739,-0.363349 0.15659,-0.15659 0.0749,0.187098 0.0657,0.410644 -0.0205,0.496769 -0.0861,0.08612 -0.14739,-0.06696 -0.13613,-0.340179 z m -0.27965,-2.943717 c 0,-0.134139 0.1153,-0.315145 0.25622,-0.402237 0.14692,-0.0908 0.19037,0.01323 0.10186,0.243887 -0.1723,0.449014 -0.35808,0.531168 -0.35808,0.15835 z m 1.22681,-1.343377 c 0.17581,-0.17713 0.38495,-0.256765 0.46474,-0.176966 0.0798,0.0798 -0.064,0.224725 -0.31966,0.322056 -0.36938,0.140655 -0.39915,0.110884 -0.14508,-0.14509 z m 4.1559,0.103507 c 0.46584,-0.05768 1.16564,-0.05649 1.5551,0.0026 0.38946,0.05914 0.008,0.106335 -0.84699,0.104881 -0.85531,-0.0015 -1.17396,-0.04984 -0.70811,-0.107526 z m -2.59648,-0.242997 c 0.17819,-0.0719 0.46977,-0.0719 0.64796,0 0.17818,0.0719 0.0324,0.130728 -0.32398,0.130728 -0.35638,0 -0.50217,-0.05883 -0.32398,-0.130728 z"
         id="path4-5" /><path
         style="fill:#fad261"
         d="M 69.049029,172.00867 C 56.139565,170.92885 45.156028,167.1312 35.528717,160.41876 l -2.005849,-1.39854 0.506603,-0.99302 c 0.686283,-1.34523 2.383581,-2.74423 4.132489,-3.40623 1.627379,-0.61599 2.310116,-0.60318 9.869545,0.18527 6.286313,0.65566 23.487037,0.66662 29.935714,0.0191 23.562481,-2.36604 41.418921,-9.70926 53.441391,-21.97706 1.45277,-1.48241 3.24917,-3.45341 3.99202,-4.37999 4.60462,-5.74355 8.82107,-14.09953 10.85513,-21.51224 0.33249,-1.21169 0.68685,-2.29751 0.78747,-2.41295 0.10063,-0.11544 2.00198,0.0565 4.22524,0.38201 l 4.04228,0.5919 0.20579,1.43228 c 0.11318,0.78775 0.1972,3.76492 0.18672,6.61594 -0.0161,4.38324 -0.10739,5.56388 -0.59104,7.64592 -2.19886,9.46559 -6.36307,16.70795 -14.02088,24.38497 -12.41317,12.4443 -30.3737,21.67256 -48.869018,25.10927 -6.744186,1.25317 -16.926303,1.82583 -23.173293,1.3033 z m 78.249821,-8.13009 c 0,-0.0538 0.20411,-0.25793 0.45357,-0.45357 0.41108,-0.32239 0.42025,-0.31322 0.0979,0.0979 -0.33859,0.43173 -0.55143,0.56903 -0.55143,0.35571 z M 33.039776,161.3846 c 0,-0.35638 0.05883,-0.50217 0.130728,-0.32398 0.0719,0.17819 0.0719,0.46977 0,0.64796 -0.0719,0.17819 -0.130728,0.0324 -0.130728,-0.32398 z M 165.46217,129.35382 c 0.0124,-0.30194 0.0739,-0.36335 0.15659,-0.15659 0.0749,0.1871 0.0657,0.41064 -0.0205,0.49677 -0.0861,0.0861 -0.14738,-0.067 -0.13613,-0.34018 z m 0.0449,-2.31106 c 0.003,-0.5702 0.056,-0.77295 0.11795,-0.45055 0.062,0.32241 0.0596,0.78894 -0.005,1.03674 -0.0649,0.2478 -0.1156,-0.016 -0.11272,-0.58619 z"
         id="path3-7" /><path
         style="fill:#f5c257"
         d="m 78.355995,186.87939 c -15.774203,-1.45491 -29.273249,-7.15772 -39.03637,-16.49133 -2.814978,-2.69113 -5.119118,-5.43524 -5.66915,-6.75165 -0.38881,-0.93056 -0.532243,-3.4002 -0.241483,-4.1579 0.117952,-0.30738 0.72712,-0.005 2.786225,1.38112 5.215663,3.51208 9.524571,5.66341 15.11609,7.54708 21.615526,7.28185 48.168858,4.07334 70.672283,-8.53953 7.49914,-4.20317 13.63999,-8.78961 19.10775,-14.27108 7.6652,-7.68443 11.88315,-15.02701 14.00798,-24.38497 0.68773,-3.02885 0.9631,-9.95832 0.52507,-13.21312 -0.16022,-1.19055 -0.24817,-2.20778 -0.19545,-2.26051 0.0527,-0.0527 1.17877,0.0483 2.5023,0.22453 l 2.40644,0.32039 0.72554,1.60014 c 1.80672,3.98464 3.45597,9.74798 4.12283,14.4073 0.60482,4.22589 0.31859,10.68333 -0.66393,14.97831 -3.3416,14.60751 -15.58399,28.24129 -34.53692,38.46216 -10.31303,5.56157 -20.77609,8.9617 -32.876823,10.68383 -2.719266,0.38699 -16.022332,0.71703 -18.752382,0.46523 z"
         id="path2-6" /><path
         style="fill:#000002;fill-opacity:1"
         d="m 154.03763,105.24877 c -7.8539,-1.1828 -7.01902,-0.8503 -6.61179,-2.63328 1.00265,-4.389926 1.10033,-10.373137 0.24227,-14.839054 -0.62963,-3.277038 0.25115,-4.317353 3.28411,-3.878935 0.91294,0.131967 2.2593,0.242286 2.9919,0.245152 0.91907,0.0036 1.52169,0.158748 1.94388,0.500479 0.59193,0.479128 0.61723,0.654373 0.7764,5.378061 0.21331,6.330187 1.18423,11.112697 2.97589,14.658357 0.6666,1.3192 0.72223,1.51276 0.42336,1.47319 -0.10691,-0.0142 -2.81862,-0.42094 -6.02602,-0.90397 z"
         id="path1-2" /></g><path
       d="m 69.329618,67.285299 c -1.057828,-0.0641 -2.621277,0.08978 -3.319177,0.381372 -1.31637,0.550015 -4.060993,2.854011 -6.752043,5.668904 C 50.034717,82.98371 44.3642,96.28569 42.827877,111.82108 c -2.27e-4,0.009 -0.0019,0.0156 -0.0026,0.0248 -0.01556,0.15784 -0.03697,0.31245 -0.05168,0.47077 0.0024,0.006 0.0037,7.9e-4 0.0062,0.007 0.0749,0.18709 0.06604,0.41049 -0.02015,0.49661 -0.0013,10e-4 -0.0018,-0.002 -0.0031,-0.001 -0.210561,3.24823 0.100652,15.66829 0.47594,18.30534 1.722079,12.10037 5.122183,22.56434 10.683586,32.87707 3.635882,6.74215 7.710683,12.6171 12.100553,17.56223 0.07721,0.0796 0.116758,0.0919 0.205156,0.20464 0.0753,0.096 0.06719,0.0984 0.10542,0.15141 7.873322,8.75819 16.763534,14.49401 26.051123,16.61863 3.209319,0.73416 7.624985,1.07758 11.415835,0.95291 0.0454,-0.004 0.0702,-0.0153 0.12713,-0.0129 0.0197,8.1e-4 0.0175,0.005 0.0351,0.007 1.22127,-0.0448 2.37801,-0.13636 3.4003,-0.28267 4.65919,-0.66685 10.42287,-2.3166 14.40739,-4.12326 l 5.5774,-2.43149 -0.22221,0.0966 c 1.62857,-0.59811 3.45412,-1.07315 5.52215,-1.41335 -0.008,-0.006 -0.0251,-0.004 -0.0315,-0.0103 -0.0861,-0.0861 0.0668,-0.14768 0.34003,-0.13643 0.14517,0.006 0.22801,0.0246 0.2589,0.0501 0.34376,-0.0516 0.70829,-0.0916 1.06454,-0.13643 -0.0376,-0.0119 -0.0863,-0.0145 -0.10852,-0.0367 -0.0861,-0.0861 0.0668,-0.14716 0.34003,-0.13591 0.24527,0.0101 0.28594,0.0574 0.19895,0.11731 0.56408,-0.0657 1.14731,-0.1215 1.74046,-0.17208 -0.13522,-0.003 -0.26104,-0.0208 -0.34571,-0.0553 -0.17548,-0.071 0.0307,-0.12465 0.45837,-0.11937 0.42764,0.005 0.57102,0.0635 0.31884,0.12919 -0.0294,0.008 -0.063,0.0113 -0.0946,0.0171 0.91146,-0.0724 1.85507,-0.12841 2.84427,-0.16174 4.7236,-0.15917 4.89885,-0.18426 5.37796,-0.77618 0.34173,-0.42219 0.49663,-1.02501 0.50023,-1.94407 0.003,-0.73258 0.1135,-2.07914 0.24546,-2.99207 0.13806,-0.95506 0.10959,-1.6738 -0.0692,-2.22208 -0.011,-0.0241 -0.025,-0.0328 -0.0351,-0.0594 -0.051,-0.1338 -0.0512,-0.17436 -0.0548,-0.22169 -0.17913,-0.36453 -0.46543,-0.61466 -0.85318,-0.77153 -0.0426,-0.005 -0.0691,0.004 -0.13177,-0.0202 -0.0474,-0.0182 -0.0427,-0.0334 -0.0816,-0.0517 -0.63264,-0.18215 -1.49673,-0.15961 -2.65307,0.0625 -0.0537,0.0103 -0.11327,0.0168 -0.16743,0.0269 -0.0201,0.0141 -0.004,0.0244 -0.0434,0.0403 -0.12779,0.0512 -0.25689,0.0493 -0.36329,0.0243 -0.39289,0.0668 -0.78289,0.13582 -1.19424,0.18862 -0.014,0.0153 -0.0502,0.0315 -0.11575,0.0486 -0.18163,0.0473 -0.39487,0.0459 -0.57619,0.0217 -0.93536,0.10068 -1.89761,0.17417 -2.88252,0.20619 -0.004,0.0132 -0.0781,0.0277 -0.30334,0.0434 -0.75316,0.0525 -1.91924,0.052 -2.59157,-0.001 -0.28446,-0.0225 -0.29456,-0.0426 -0.154,-0.0589 -0.90064,-0.0343 -1.7937,-0.0904 -2.66443,-0.18035 -0.14695,0.0126 -0.29935,0.007 -0.4129,-0.0388 -0.005,-0.002 -0.004,-0.004 -0.009,-0.006 -0.55027,-0.0631 -1.09339,-0.13417 -1.61851,-0.21963 -0.15618,0.0187 -0.32327,0.0159 -0.44597,-0.0336 -0.0585,-0.0236 -0.0714,-0.0444 -0.0641,-0.0636 -0.41815,-0.0755 -0.83887,-0.15016 -1.23352,-0.2403 -0.44575,-0.1018 -0.75935,-0.23007 -0.99736,-0.24287 l 5.2e-4,-5.2e-4 -0.93018,-0.13899 c -0.0647,-0.0564 -0.46601,-0.19738 -0.99218,-0.36484 -0.412,-0.13112 -0.88848,-0.2767 -1.42059,-0.42271 -7.4125,-2.034 -15.76899,-6.25066 -21.51238,-10.85515 -0.50534,-0.40513 -1.32086,-1.13005 -2.198828,-1.93528 -0.112341,-0.0668 -0.283549,-0.19725 -0.522449,-0.42168 -0.198382,-0.18637 -0.241599,-0.27062 -0.360701,-0.41083 -0.442248,-0.41569 -0.897034,-0.83115 -1.298112,-1.22422 -0.638076,-0.62531 -1.254612,-1.27583 -1.866036,-1.93269 -0.02198,-0.0171 -0.01436,-0.008 -0.03927,-0.0274 -0.295383,-0.23166 -0.440622,-0.39817 -0.44235,-0.48421 -0.212944,-0.23431 -0.414102,-0.48267 -0.623735,-0.72089 0.08729,0.12955 0.06187,0.13752 -0.229443,-0.0909 -0.431718,-0.33858 -0.569365,-0.55138 -0.356051,-0.55138 0.02647,0 0.142904,0.14333 0.223242,0.22324 -10.257922,-11.87669 -16.493645,-28.50557 -18.639172,-49.82228 -0.041,-0.0432 -0.07036,-0.13786 -0.06305,-0.31575 0.0033,-0.0807 0.0181,-0.0978 0.02791,-0.14366 -0.07035,-0.77178 -0.135025,-1.63419 -0.188619,-2.6386 -0.06226,0.004 -0.107951,-0.10306 -0.0987,-0.32763 0.0076,-0.18502 0.0374,-0.2459 0.07545,-0.24391 -0.05807,-1.19 -0.09718,-2.518 -0.133326,-3.91139 -0.0044,0.17402 -0.01314,0.35074 -0.03876,0.48369 -0.0618,0.32074 -0.112138,0.058 -0.112138,-0.58342 0,-0.64147 0.05032,-0.90365 0.112138,-0.58291 0.02342,0.12154 0.02947,0.28387 0.03514,0.44183 -0.01016,-0.40751 -0.0093,-0.86138 -0.01757,-1.28054 -0.0094,0.0679 -0.0111,0.14769 -0.03049,0.19534 -0.071,0.17546 -0.124653,-0.0307 -0.119373,-0.45837 0.005,-0.42764 0.06298,-0.57102 0.128675,-0.31885 h 5.16e-4 c 0.01033,0.0396 0.0076,0.0879 0.01447,0.13126 -0.0044,-0.24461 -0.006,-0.49341 -0.0098,-0.74104 -0.0069,0.0272 -0.0054,0.0687 -0.01447,0.0909 -0.071,0.17548 -0.125169,-0.0307 -0.119889,-0.45837 0.0049,-0.41721 0.06083,-0.55746 0.12454,-0.33021 -0.035,-2.709171 -0.03377,-5.30973 0.0036,-8.013983 -0.05952,0.281748 -0.108004,0.02684 -0.108004,-0.597379 0,-0.641463 0.05084,-0.904158 0.112655,-0.583427 0.0073,0.03807 0.0053,0.09536 0.01085,0.138493 0.0047,-0.269283 0.0069,-0.543976 0.0124,-0.809253 -0.01102,0.05622 -0.01949,0.117188 -0.04961,0.147278 -0.0861,0.08612 -0.147685,-0.06734 -0.136426,-0.340548 0.0124,-0.301925 0.07379,-0.363333 0.15658,-0.15658 0.02353,0.05878 0.02489,0.119257 0.03204,0.179834 0.0062,-0.290186 0.0059,-0.603848 0.01292,-0.888318 -0.0021,0.110015 -0.01642,0.22032 -0.05013,0.303858 -0.0719,0.178184 -0.130741,0.03236 -0.130741,-0.324011 0,-0.356368 0.05881,-0.502197 0.130741,-0.324012 0.03406,0.08441 0.04937,0.195759 0.05116,0.306958 0.02788,-1.115098 0.05147,-2.200073 0.09302,-3.197221 -0.02689,-0.0602 -0.04205,-0.163755 -0.03617,-0.306441 0.0067,-0.16351 0.02939,-0.241892 0.06046,-0.259932 0.01063,-0.233281 0.01907,-0.486828 0.03049,-0.711068 -0.05741,-0.009 -0.09977,-0.110728 -0.09095,-0.325045 0.0099,-0.240471 0.0556,-0.280691 0.113688,-0.202055 0.05493,-0.993261 0.12027,-1.84209 0.19172,-2.597774 -0.03185,-0.05565 -0.0524,-0.1544 -0.04599,-0.310058 0.0085,-0.206192 0.04454,-0.254851 0.08992,-0.227893 0.772929,-7.418308 0.785505,-8.133291 0.173632,-9.749793 -0.66198,-1.748859 -2.061318,-3.4463 -3.40651,-4.132564 L 70.525701,67.68282 Z"
       style="fill:none;stroke:#ffffff;stroke-opacity:1"
       id="path13"
       sodipodi:nodetypes="csscccccccscscscscscccccscccsccccccsscsccccccscccccccscccsccscscccssscscscccccsccsccsccsssccccccccccccscccccsccssscccccsccscsccc" /><path
       d="m 159.59247,172.345 c 1.05783,0.0641 2.62127,-0.0898 3.31917,-0.38138 1.31637,-0.55001 4.061,-2.85401 6.75205,-5.6689 9.22368,-9.64814 14.8942,-22.95012 16.43052,-38.48551 2.3e-4,-0.009 0.002,-0.0156 0.003,-0.0248 0.0156,-0.15784 0.037,-0.31245 0.0517,-0.47077 -0.002,-0.006 -0.004,-7.9e-4 -0.006,-0.007 -0.0749,-0.18709 -0.066,-0.41049 0.0202,-0.49661 0.001,-10e-4 0.002,0.002 0.003,0.001 0.21056,-3.24823 -0.10065,-15.66829 -0.47594,-18.30534 -1.72208,-12.10037 -5.12218,-22.56434 -10.68359,-32.87707 -3.63588,-6.74215 -7.71068,-12.617097 -12.10055,-17.562227 -0.0772,-0.0796 -0.11676,-0.0919 -0.20516,-0.20464 -0.0753,-0.096 -0.0672,-0.0984 -0.10542,-0.15141 -7.87332,-8.75819 -16.76353,-14.49401 -26.05112,-16.61863 -3.20932,-0.73416 -7.62498,-1.07758 -11.41583,-0.95291 -0.0454,0.004 -0.0702,0.0153 -0.12713,0.0129 -0.0197,-8.1e-4 -0.0175,-0.005 -0.0351,-0.007 -1.22127,0.0448 -2.37801,0.13636 -3.4003,0.28267 -4.65919,0.66685 -10.42287,2.3166 -14.4074,4.12326 l -5.5774,2.43149 0.22221,-0.0966 c -1.62857,0.59811 -3.45412,1.07315 -5.522154,1.41335 0.008,0.006 0.0251,0.004 0.0315,0.0103 0.0861,0.0861 -0.0668,0.14768 -0.34003,0.13643 -0.14517,-0.006 -0.22801,-0.0246 -0.2589,-0.0501 -0.34376,0.0516 -0.70829,0.0916 -1.06454,0.13643 0.0376,0.0119 0.0863,0.0145 0.10852,0.0367 0.0861,0.0861 -0.0668,0.14716 -0.34003,0.13591 -0.24527,-0.0101 -0.28594,-0.0574 -0.19895,-0.11731 -0.56408,0.0657 -1.14731,0.1215 -1.74046,0.17208 0.13522,0.003 0.26104,0.0208 0.34571,0.0553 0.17548,0.071 -0.0307,0.12465 -0.45837,0.11937 -0.42764,-0.005 -0.57102,-0.0635 -0.31884,-0.12919 0.0294,-0.008 0.063,-0.0113 0.0946,-0.0171 -0.91146,0.0724 -1.85507,0.12841 -2.84427,0.16174 -4.7236,0.15917 -4.89885,0.18426 -5.37796,0.77618 -0.34173,0.42219 -0.49663,1.02501 -0.50023,1.94407 -0.003,0.73258 -0.1135,2.07914 -0.24546,2.99207 -0.13806,0.95506 -0.10959,1.6738 0.0692,2.22208 0.011,0.0241 0.025,0.0328 0.0351,0.0594 0.051,0.1338 0.0512,0.17436 0.0548,0.22169 0.17913,0.36453 0.46543,0.61466 0.85318,0.77153 0.0426,0.005 0.0691,-0.004 0.13177,0.0202 0.0474,0.0182 0.0427,0.0334 0.0816,0.0517 0.63264,0.18215 1.49673,0.15961 2.65307,-0.0625 0.0537,-0.0103 0.11327,-0.0168 0.16743,-0.0269 0.0201,-0.0141 0.004,-0.0244 0.0434,-0.0403 0.12779,-0.0512 0.25689,-0.0493 0.36329,-0.0243 0.39289,-0.0668 0.78289,-0.13582 1.19424,-0.18862 0.014,-0.0153 0.0502,-0.0315 0.11575,-0.0486 0.18163,-0.0473 0.39487,-0.0459 0.57619,-0.0217 0.93536,-0.10068 1.89761,-0.17417 2.88252,-0.20619 0.004,-0.0132 0.0781,-0.0277 0.30334,-0.0434 0.75316,-0.0525 1.91924,-0.052 2.59157,10e-4 0.28446,0.0225 0.29456,0.0426 0.154,0.0589 0.90064,0.0343 1.793704,0.0904 2.664434,0.18035 0.14695,-0.0126 0.29935,-0.007 0.4129,0.0388 0.005,0.002 0.004,0.004 0.009,0.006 0.55027,0.0631 1.09339,0.13417 1.61851,0.21963 0.15618,-0.0187 0.32327,-0.0159 0.44597,0.0336 0.0585,0.0236 0.0714,0.0444 0.0641,0.0636 0.41815,0.0755 0.83887,0.15016 1.23352,0.2403 0.44575,0.1018 0.75935,0.23007 0.99736,0.24287 l -5.2e-4,5.2e-4 0.93018,0.13899 c 0.0647,0.0564 0.46601,0.19738 0.99218,0.36484 0.412,0.13112 0.88848,0.2767 1.42059,0.42271 7.41251,2.034 15.769,6.25066 21.51239,10.855147 0.50534,0.40513 1.32086,1.13005 2.19882,1.93528 0.11234,0.0668 0.28355,0.19725 0.52245,0.42168 0.19838,0.18637 0.2416,0.27062 0.3607,0.41083 0.44225,0.41569 0.89704,0.83115 1.29812,1.22422 0.63807,0.62531 1.25461,1.27583 1.86603,1.93269 0.022,0.0171 0.0144,0.008 0.0393,0.0274 0.29538,0.23166 0.44062,0.39817 0.44235,0.48421 0.21295,0.23431 0.4141,0.48267 0.62374,0.72089 -0.0873,-0.12955 -0.0619,-0.13752 0.22944,0.0909 0.43172,0.33858 0.56936,0.55138 0.35605,0.55138 -0.0265,0 -0.1429,-0.14333 -0.22324,-0.22324 10.25792,11.87669 16.49364,28.50557 18.63917,49.82228 0.041,0.0432 0.0704,0.13786 0.0631,0.31575 -0.003,0.0807 -0.0181,0.0978 -0.0279,0.14366 0.0704,0.77178 0.13503,1.63419 0.18862,2.6386 0.0623,-0.004 0.10795,0.10306 0.0987,0.32763 -0.008,0.18502 -0.0374,0.2459 -0.0755,0.24391 0.0581,1.19 0.0972,2.518 0.13333,3.91139 0.004,-0.17402 0.0131,-0.35074 0.0388,-0.48369 0.0618,-0.32074 0.11213,-0.058 0.11213,0.58342 0,0.64147 -0.0503,0.90365 -0.11213,0.58291 -0.0234,-0.12154 -0.0295,-0.28387 -0.0351,-0.44183 0.0102,0.40751 0.009,0.86138 0.0176,1.28054 0.009,-0.0679 0.0111,-0.14769 0.0305,-0.19534 0.071,-0.17546 0.12465,0.0307 0.11937,0.45837 -0.005,0.42764 -0.063,0.57102 -0.12868,0.31885 h -5.1e-4 c -0.0103,-0.0396 -0.008,-0.0879 -0.0145,-0.13126 0.004,0.24461 0.006,0.49341 0.01,0.74104 0.007,-0.0272 0.005,-0.0687 0.0145,-0.0909 0.071,-0.17548 0.12517,0.0307 0.11989,0.45837 -0.005,0.41721 -0.0608,0.55746 -0.12454,0.33021 0.035,2.70918 0.0338,5.30973 -0.004,8.01399 0.0595,-0.28175 0.108,-0.0268 0.108,0.59738 0,0.64146 -0.0508,0.90415 -0.11265,0.58342 -0.007,-0.0381 -0.005,-0.0954 -0.0109,-0.13849 -0.005,0.26928 -0.007,0.54398 -0.0124,0.80925 0.011,-0.0562 0.0195,-0.11718 0.0496,-0.14727 0.0861,-0.0861 0.14768,0.0673 0.13642,0.34054 -0.0124,0.30193 -0.0738,0.36334 -0.15658,0.15658 -0.0235,-0.0588 -0.0249,-0.11925 -0.032,-0.17983 -0.006,0.29019 -0.006,0.60385 -0.0129,0.88832 0.002,-0.11002 0.0164,-0.22032 0.0501,-0.30386 0.0719,-0.17818 0.13074,-0.0324 0.13074,0.32401 0,0.35637 -0.0588,0.5022 -0.13074,0.32401 -0.0341,-0.0844 -0.0494,-0.19576 -0.0512,-0.30696 -0.0279,1.1151 -0.0515,2.20008 -0.093,3.19723 0.0269,0.0602 0.0421,0.16375 0.0362,0.30644 -0.007,0.16351 -0.0294,0.24189 -0.0605,0.25993 -0.0106,0.23328 -0.0191,0.48683 -0.0305,0.71107 0.0574,0.009 0.0998,0.11072 0.091,0.32504 -0.01,0.24047 -0.0556,0.28069 -0.11369,0.20206 -0.0549,0.99326 -0.12027,1.84209 -0.19172,2.59777 0.0319,0.0556 0.0524,0.1544 0.046,0.31006 -0.008,0.20619 -0.0445,0.25485 -0.0899,0.22789 -0.77293,7.41831 -0.7855,8.13329 -0.17363,9.74979 0.66198,1.74886 2.06132,3.4463 3.40651,4.13257 l 1.09347,0.36328 z"
       style="fill:none;stroke:#ffffff;stroke-opacity:1"
       id="path13-5"
       sodipodi:nodetypes="csscccccccscscscscscccccscccsccccccsscsccccccscccccccscccsccscscccssscscscccccsccsccsccsssccccccccccccscccccsccssscccccsccscsccc" /></g></svg>
